# xmcd
#
# Track frame offsets:
#	150
#	12875
#	25005
#	37255
#	50805
#	61862
#	74817
#	88017
#	98790
#	111640
#	123847
#	135960
#	148600
#	162165
#	175110
#	186227
#	198132
#	208352
#	219297
#	229885
#
# Disc length: 3202 seconds
#
# Revision: 7
# Processed by: cddbd v1.5.2PL0 Copyright (c) Steve Scherf et al.
# Submitted via: audiograbber 1.83.01
#
DISCID=270c8014
DTITLE=Various Artist - Hillbilly Boogie
DYEAR=1994
DGENRE=Country
TTITLE0=Johnny Bond and His Red River Valley Boys - Smoke! Smoke! Smoke! (That Ci
TTITLE0=garette)
TTITLE1=Spade Cooley and His Orchestra - Three Way Boogie (Instrumental)
TTITLE2=Leon McAuliffe and His Western Swing Band - Take It Away, Leon
TTITLE3=Al Dexter and His Troopers - New Broom Boogie
TTITLE4=Johnny Hicks and His Troubadours - Hamburger Hop
TTITLE5=Paul Howard and His Cotton Pickers - Drinking All My Troubles Away
TTITLE6=Curley Williams and His Georgia Peach Pickers - Georgia Boogie
TTITLE7=Bob Wills and His Texas Playboys - Cowboy Stomp
TTITLE8=Johnny Bond and His Red River Valley Boys - Mean Mama Boogie
TTITLE9=Spade Cooley and His Orchestra - Yodeling Polka
TTITLE10=Al Dexter and His Troopers - Saturday Night Boogie
TTITLE11=Paul Howard and His Cotton Pickers - Rootie Tootie
TTITLE12=Leon McAuliffe and His Western Swing Band - Blue Guitar Stomp
TTITLE13=Louise Massey and The Westerners - Squeeze Box Polka
TTITLE14=Andy Reynolds and His 101 Ranch Boys - Beer Bottle Mama
TTITLE15=Curley Williams and His Georgia Peach Pickers - Fiddlin' Boogie
TTITLE16=Lefty Frizzell - My Baby's Just Like Money
TTITLE17=Johnny Hicks and His Country Hicks - Get Your Kicks (From The Country Hi
TTITLE17=cks)
TTITLE18=Smiley Maxedon - Give Me A Red Hot Mama And An Ice Cold Beer
TTITLE19=Little Jimmy Dickens - Salty Boogie
EXTD=
EXTT0=Johnny Bond and His Red River Valley Boys
EXTT1=Spade Cooley and His Orchestra
EXTT2=Leon McAuliffe and His Western Swing Band
EXTT3=Al Dexter and His Troopers
EXTT4=Johnny Hicks and His Troubadours
EXTT5=Paul Howard and His Cotton Pickers
EXTT6=Curley Williams and His Georgia Peach Pickers
EXTT7=Bob Wills and His Texas Playboys
EXTT8=Johnny Bond and His Red River Valley Boys
EXTT9=Spade Cooley and His Orchestra
EXTT10=Al Dexter and His Troopers
EXTT11=Paul Howard and His Cotton Pickers
EXTT12=Leon McAuliffe and His Western Swing Band
EXTT13=Louise Massey and The Westerners
EXTT14=Andy Reynolds and His 101 Ranch Boys
EXTT15=Curley Williams and His Georgia Peach Pickers
EXTT16=Lefty Frizzell
EXTT17=Johnny Hicks and His Troubadours
EXTT18=Smiley Maxedon
EXTT19=Little Jimmy Dickens
PLAYORDER=
